<?xml version="1.0" standalone="no"?>
<!DOCTYPE svg PUBLIC "-//W3C//DTD SVG 20010904//EN"
 "http://www.w3.org/TR/2001/REC-SVG-20010904/DTD/svg10.dtd">
<svg version="1.0" xmlns="http://www.w3.org/2000/svg"
 width="600.000000pt" height="600.000000pt" viewBox="0 0 600.000000 600.000000"
 preserveAspectRatio="xMidYMid meet">
<metadata>
Created by potrace 1.14, written by Peter Selinger 2001-2017
</metadata>
<g transform="translate(0.000000,600.000000) scale(0.100000,-0.100000)"
fill="#000000" stroke="none">
<path d="M1803 5981 c-51 -24 -89 -79 -98 -143 l-7 -48 -554 0 c-522 0 -557
-1 -604 -19 -78 -30 -134 -81 -172 -159 l-33 -67 -3 -2625 c-2 -2589 -2 -2626
17 -2690 33 -107 109 -181 221 -214 48 -14 252 -16 1985 -16 2098 0 1994 -3
2084 54 61 39 109 103 131 174 19 61 20 94 20 716 l-1 651 267 260 266 260
-266 250 -266 250 -2 1465 -3 1465 -33 67 c-38 78 -94 129 -172 159 -47 18
-82 19 -604 19 l-554 0 -7 50 c-9 65 -40 110 -95 138 l-44 22 -716 0 c-681 0
-717 -1 -757 -19z m-98 -545 c7 -60 34 -107 78 -140 28 -21 33 -21 777 -21
744 0 749 0 777 21 44 33 71 80 79 140 l6 55 477 -3 478 -3 36 -28 c79 -60 72
89 75 -1612 l3 -1520 -208 -202 -208 -203 -1521 0 -1521 0 -43 -23 c-96 -50
-108 -170 -25 -247 l27 -25 1391 -3 1392 -2 -145 -145 c-143 -143 -144 -145
-125 -163 15 -15 413 -359 508 -441 17 -14 29 -4 180 145 89 87 193 188 230
224 l68 65 -3 -435 c-3 -388 -5 -438 -20 -466 -23 -43 -71 -81 -116 -94 -51
-14 -3533 -14 -3584 0 -45 13 -93 51 -116 94 -16 29 -17 187 -17 2498 l0 2466
30 43 c58 82 39 79 566 79 l467 0 7 -54z"/>
<path d="M990 4162 c-107 -53 -107 -211 0 -264 33 -17 129 -18 1575 -18 1519
0 1540 0 1573 20 100 61 95 211 -8 262 -33 17 -129 18 -1570 18 -1441 0 -1537
-1 -1570 -18z"/>
<path d="M1019 3421 c-74 -23 -115 -87 -106 -166 6 -56 52 -110 107 -125 48
-13 3032 -13 3080 0 20 5 51 25 69 44 64 66 49 180 -28 229 l-36 22 -1530 2
c-841 1 -1542 -2 -1556 -6z"/>
<path d="M982 2650 c-100 -61 -95 -211 8 -262 33 -17 129 -18 1570 -18 1441 0
1537 1 1570 18 103 51 108 201 8 262 -33 20 -54 20 -1578 20 -1524 0 -1545 0
-1578 -20z"/>
<path d="M3362 1071 c-29 -93 -52 -175 -51 -182 0 -8 69 -72 154 -142 l153
-128 166 83 c91 46 165 86 164 90 -3 7 -526 448 -532 448 -1 0 -26 -76 -54
-169z"/>
<path d="M3223 633 c-17 -60 -30 -109 -29 -110 4 -5 242 30 249 37 7 6 -172
180 -185 180 -2 0 -18 -48 -35 -107z"/>
<path d="M5165 2982 c-37 -23 -276 -272 -270 -282 2 -4 116 -115 252 -247
l248 -241 140 129 c76 70 145 139 152 151 16 30 16 63 -1 97 -15 28 -382 377
-420 398 -30 18 -67 16 -101 -5z"/>
</g>
</svg>
